<svg xmlns="http://www.w3.org/2000/svg" xmlns:xlink="http://www.w3.org/1999/xlink" width="1080" height="689.59"><rect width="1080" height="689.59" rx="5" ry="5" class="a"/><svg y="0%" x="0%"><circle cx="20" cy="20" r="6" fill="#ff5f58"/><circle cx="40" cy="20" r="6" fill="#ffbd2e"/><circle cx="60" cy="20" r="6" fill="#18c132"/></svg><svg height="629.59" viewBox="0 0 104 62.959" width="1040" x="15" xmlns="http://www.w3.org/2000/svg" xmlns:xlink="http://www.w3.org/1999/xlink" y="50"><style>@keyframes l{0%{transform:translateX(0)}.9%{transform:translateX(-104px)}.91%{transform:translateX(-208px)}.99%{transform:translateX(-416px)}4.49%{transform:translateX(-520px)}8.61%{transform:translateX(-936px)}8.64%{transform:translateX(-1144px)}8.71%{transform:translateX(-1352px)}28.8%{transform:translateX(-1456px)}30.95%{transform:translateX(-1664px)}30.96%{transform:translateX(-1768px)}30.97%{transform:translateX(-2080px)}31.03%{transform:translateX(-2288px)}49.98%{transform:translateX(-2392px)}53.12%{transform:translateX(-2704px)}57.51%{transform:translateX(-3016px)}59.66%{transform:translateX(-3224px)}59.77%{transform:translateX(-3328px)}82.38%{transform:translateX(-3432px)}85.27%{transform:translateX(-3640px)}85.28%{transform:translateX(-3744px)}88.75%{transform:translateX(-3848px)}90.35%{transform:translateX(-3952px)}92.65%{transform:translateX(-4160px)}92.73%{transform:translateX(-4368px)}to{transform:translateX(-4472px)}}.a{fill:#282d35}.f,.g{fill:#a8cc8c;font-weight:700}.g{fill:#66c2cd}.h{fill:#b9c0cb}.i{fill:#e88388;font-weight:700}</style><g font-size="1.67" font-family="Monaco,Consolas,Menlo,'Bitstream Vera Sans Mono','Powerline Symbols',monospace"><defs><symbol id="1"><text y="1.67" class="f">➜</text><text x="3.006" y="1.67" class="g">~</text></symbol><symbol id="2"><path class="h" d="M0 0h2v2.171H0z"/><text y="1.67" class="a">fi</text></symbol><symbol id="3"><path class="h" d="M0 0h104v2.171H0z"/><text y="1.67" class="a">docker run -v &quot;$(pwd)/output:/output&quot; -v &quot;$HOME/wms-config:/wms-config&quot; wroge/wms$VERSION $@&apos; &gt; ${PATH%%</text></symbol><symbol id="4"><path class="h" d="M0 0h35v2.171H0z"/><text y="1.67" class="a">:*}/wms &amp;&amp; chmod +x ${PATH%%:*}/wms</text></symbol><symbol id="5"><text y="1.67" class="f">➜</text><text x="3.006" y="1.67" class="g">~</text><text x="5.01" y="1.67" class="h">echo</text><text x="10.02" y="1.67" class="h">&apos;#!/bin/sh</text></symbol><symbol id="6"><text y="1.67" class="h">if</text><text x="3.006" y="1.67" class="h">[[</text><text x="6.012" y="1.67" class="h">$1</text><text x="9.018" y="1.67" class="h">==</text><text x="12.024" y="1.67" class="h">&quot;upgrade&quot;</text><text x="22.044" y="1.67" class="h">]];</text><text x="26.052" y="1.67" class="h">then</text></symbol><symbol id="7"><text x="4.008" y="1.67" class="h">docker</text><text x="11.022" y="1.67" class="h">pull</text><text x="16.032" y="1.67" class="h">-a</text><text x="19.038" y="1.67" class="h">wroge/wms</text></symbol><symbol id="8"><text x="4.008" y="1.67" class="h">exit</text><text x="9.018" y="1.67" class="h">0</text></symbol><symbol id="9"><text y="1.67" class="h">fi</text></symbol><symbol id="10"><text y="1.67" class="h">if</text><text x="3.006" y="1.67" class="h">[</text><text x="5.01" y="1.67" class="h">-z</text><text x="8.016" y="1.67" class="h">$VERSION</text><text x="17.034" y="1.67" class="h">];</text><text x="20.04" y="1.67" class="h">then</text></symbol><symbol id="11"><text x="4.008" y="1.67" class="h">VERSION+=&quot;:latest&quot;</text></symbol><symbol id="12"><text y="1.67" class="h">else</text></symbol><symbol id="13"><text x="4.008" y="1.67" class="h">VERSION=&quot;:${VERSION}&quot;</text></symbol><symbol id="14"><text y="1.67" class="h">docker</text><text x="7.014" y="1.67" class="h">run</text><text x="11.022" y="1.67" class="h">-v</text><text x="14.028" y="1.67" class="h">&quot;$(pwd)/output:/output&quot;</text><text x="38.076" y="1.67" class="h">-v</text><text x="41.082" y="1.67" class="h">&quot;$HOME/wms-config:/wms-config&quot;</text><text x="72.144" y="1.67" class="h">wroge/wms$VERSION</text><text x="90.18" y="1.67" class="h">$@&apos;</text><text x="94.188" y="1.67" class="h">&gt;</text><text x="96.192" y="1.67" class="h">${PATH%%</text></symbol><symbol id="15"><text y="1.67" class="h">:*}/wms</text><text x="8.016" y="1.67" class="h">&amp;&amp;</text><text x="11.022" y="1.67" class="h">chmod</text><text x="17.034" y="1.67" class="h">+x</text><text x="20.04" y="1.67" class="h">${PATH%%:*}/wms</text></symbol><symbol id="16"><path class="h" d="M0 0h86v2.171H0z"/><text y="1.67" class="a">version: &quot;&quot;&apos; &gt; ${HOME}/wms-config/.wms.yaml &amp;&amp; chmod +x ${HOME}/wms-config/.wms.yaml</text></symbol><symbol id="17"><text y="1.67" class="f">➜</text><text x="3.006" y="1.67" class="g">~</text><text x="5.01" y="1.67" class="h">mkdir</text><text x="11.022" y="1.67" class="h">-m</text><text x="14.028" y="1.67" class="h">777</text><text x="18.036" y="1.67" class="h">${HOME}/wms-config</text><text x="37.074" y="1.67" class="h">&amp;&amp;</text><text x="40.08" y="1.67" class="h">echo</text><text x="45.09" y="1.67" class="h">&apos;terrestris:</text></symbol><symbol id="18"><text x="2.004" y="1.67" class="h">epsg:</text><text x="8.016" y="1.67" class="h">25832</text></symbol><symbol id="19"><text x="2.004" y="1.67" class="h">file-name:</text><text x="13.026" y="1.67" class="h">example</text></symbol><symbol id="20"><text x="2.004" y="1.67" class="h">format:</text><text x="10.02" y="1.67" class="h">&quot;&quot;</text></symbol><symbol id="21"><text x="2.004" y="1.67" class="h">layers:</text></symbol><symbol id="22"><text x="2.004" y="1.67" class="h">-</text><text x="4.008" y="1.67" class="h">TOPO-WMS</text></symbol><symbol id="23"><text x="2.004" y="1.67" class="h">output-folder:</text><text x="17.034" y="1.67" class="h">&quot;&quot;</text></symbol><symbol id="24"><text x="2.004" y="1.67" class="h">url:</text><text x="7.014" y="1.67" class="h">http://ows.terrestris.de/osm/service</text></symbol><symbol id="25"><text x="2.004" y="1.67" class="h">version:</text><text x="11.022" y="1.67" class="h">&quot;&quot;&apos;</text><text x="15.03" y="1.67" class="h">&gt;</text><text x="17.034" y="1.67" class="h">${HOME}/wms-config/.wms.yaml</text><text x="46.092" y="1.67" class="h">&amp;&amp;</text><text x="49.098" y="1.67" class="h">chmod</text><text x="55.11" y="1.67" class="h">+x</text><text x="58.116" y="1.67" class="h">${HOME}/wms-config/.wms.yaml</text></symbol><symbol id="26"><text y="1.67" class="h">mkdir:</text><text x="7.014" y="1.67" class="h">/Users/malte.wrogemann/wms-config:</text><text x="42.084" y="1.67" class="h">File</text><text x="47.094" y="1.67" class="h">exists</text></symbol><symbol id="27"><text y="1.67" class="i">➜</text><text x="3.006" y="1.67" class="g">~</text></symbol><symbol id="28"><text y="1.67" class="i">➜</text><text x="3.006" y="1.67" class="g">~</text><text x="5.01" y="1.67" class="h">wms</text><text x="9.018" y="1.67" class="h">cap</text><text x="13.026" y="1.67" class="h">terrestris</text></symbol><symbol id="29"><text y="1.67" class="h">EPSG:900913</text><text x="12.024" y="1.67" class="h">minx:</text><text x="18.036" y="1.67" class="h">-20037508.342800</text><text x="35.07" y="1.67" class="h">miny:</text><text x="41.082" y="1.67" class="h">-25819498.513500</text><text x="58.116" y="1.67" class="h">maxx:</text><text x="64.128" y="1.67" class="h">20037508.342800</text><text x="80.16" y="1.67" class="h">maxy</text><text x="85.17" y="1.67" class="h">25819498.513500</text></symbol><symbol id="30"><text y="1.67" class="h">EPSG:4326</text><text x="10.02" y="1.67" class="h">minx:</text><text x="16.032" y="1.67" class="h">-180.000000</text><text x="28.056" y="1.67" class="h">miny:</text><text x="34.068" y="1.67" class="h">-88.000000</text><text x="45.09" y="1.67" class="h">maxx:</text><text x="51.102" y="1.67" class="h">180.000000</text><text x="62.124" y="1.67" class="h">maxy</text><text x="67.134" y="1.67" class="h">88.000000</text></symbol><symbol id="31"><text y="1.67" class="h">EPSG:3857</text><text x="10.02" y="1.67" class="h">minx:</text><text x="16.032" y="1.67" class="h">-20037508.342800</text><text x="33.066" y="1.67" class="h">miny:</text><text x="39.078" y="1.67" class="h">-25819498.513500</text><text x="56.112" y="1.67" class="h">maxx:</text><text x="62.124" y="1.67" class="h">20037508.342800</text><text x="78.156" y="1.67" class="h">maxy</text><text x="83.166" y="1.67" class="h">25819498.513500</text></symbol><symbol id="32"><text y="1.67" class="h">Name:</text><text x="6.012" y="1.67" class="h">OSM-Overlay-WMS</text></symbol><symbol id="33"><text y="1.67" class="h">Name:</text><text x="6.012" y="1.67" class="h">TOPO-WMS</text></symbol><symbol id="34"><text y="1.67" class="h">Name:</text><text x="6.012" y="1.67" class="h">TOPO-OSM-WMS</text></symbol><symbol id="35"><text y="1.67" class="h">Name:</text><text x="6.012" y="1.67" class="h">SRTM30-Hillshade</text></symbol><symbol id="36"><text y="1.67" class="h">EPSG:900913</text><text x="12.024" y="1.67" class="h">minx:</text><text x="18.036" y="1.67" class="h">-20037508.342800</text><text x="35.07" y="1.67" class="h">miny:</text><text x="41.082" y="1.67" class="h">-7558415.656080</text><text x="57.114" y="1.67" class="h">maxx:</text><text x="63.126" y="1.67" class="h">20037508.342800</text><text x="79.158" y="1.67" class="h">maxy</text><text x="84.168" y="1.67" class="h">8399737.889820</text></symbol><symbol id="37"><text y="1.67" class="h">EPSG:4326</text><text x="10.02" y="1.67" class="h">minx:</text><text x="16.032" y="1.67" class="h">-180.000000</text><text x="28.056" y="1.67" class="h">miny:</text><text x="34.068" y="1.67" class="h">-56.000000</text><text x="45.09" y="1.67" class="h">maxx:</text><text x="51.102" y="1.67" class="h">180.000000</text><text x="62.124" y="1.67" class="h">maxy</text><text x="67.134" y="1.67" class="h">60.000000</text></symbol><symbol id="38"><text y="1.67" class="h">EPSG:3857</text><text x="10.02" y="1.67" class="h">minx:</text><text x="16.032" y="1.67" class="h">-20037508.342800</text><text x="33.066" y="1.67" class="h">miny:</text><text x="39.078" y="1.67" class="h">-7558415.656080</text><text x="55.11" y="1.67" class="h">maxx:</text><text x="61.122" y="1.67" class="h">20037508.342800</text><text x="77.154" y="1.67" class="h">maxy</text><text x="82.164" y="1.67" class="h">8399737.889820</text></symbol><symbol id="39"><text y="1.67" class="h">Name:</text><text x="6.012" y="1.67" class="h">SRTM30-Colored</text></symbol><symbol id="40"><text y="1.67" class="h">Name:</text><text x="6.012" y="1.67" class="h">SRTM30-Colored-Hillshade</text></symbol><symbol id="41"><text y="1.67" class="h">Name:</text><text x="6.012" y="1.67" class="h">SRTM30-Contour</text></symbol><symbol id="42"><text y="1.67" class="f">➜</text><text x="3.006" y="1.67" class="g">~</text><text x="5.01" y="1.67" class="h">wms</text><text x="9.018" y="1.67" class="h">map</text><text x="13.026" y="1.67" class="h">terrestris</text><text x="24.048" y="1.67" class="h">-b</text><text x="27.054" y="1.67" class="h">565000,5930000,570000,5935000</text><text x="57.114" y="1.67" class="h">-w</text><text x="60.12" y="1.67" class="h">1000</text></symbol><symbol id="43"><text y="1.67" class="h">http://ows.terrestris.de/osm/service?SERVICE=WMS&amp;REQUEST=GetMap&amp;VERSION=1.1.1&amp;FORMAT=image/jpeg&amp;LAYERS=T</text></symbol><symbol id="44"><text y="1.67" class="h">OPO-WMS&amp;STYLES=&amp;SRS=EPSG:900913&amp;WIDTH=1000&amp;HEIGHT=1000&amp;BBOX=1110998.5364747,7078816.8197398,1119515.6176</text></symbol><symbol id="45"><text y="1.67" class="h">323,7087113.4792617</text></symbol><symbol id="46"><text y="1.67" class="h">Done.</text><text x="6.012" y="1.67" class="h">Your</text><text x="11.022" y="1.67" class="h">requested</text><text x="21.042" y="1.67" class="h">file</text><text x="26.052" y="1.67" class="h">is</text><text x="29.058" y="1.67" class="h">here:</text><text x="35.07" y="1.67" class="h">/output</text></symbol><symbol id="a"><path fill="transparent" d="M0 0h104v29H0z"/></symbol><symbol id="b"><path fill="#6f7683" d="M0 0h1.102v2.171H0z"/></symbol></defs><path class="a" d="M0 0h104v62.959H0z"/><g style="animation-duration:25.508539s;animation-iteration-count:infinite;animation-name:l;animation-timing-function:steps(1,end)"><svg width="4576"><svg><use xlink:href="#a"/><use xlink:href="#b" x="-.004"/></svg><svg x="104"><use xlink:href="#a"/><use xlink:href="#b" x="-.004"/></svg><svg x="208"><use xlink:href="#a"/><use xlink:href="#b" x="-.004"/></svg><svg x="312"><use xlink:href="#a"/><use xlink:href="#b" x="4.996"/><use xlink:href="#1"/></svg><svg x="416"><use xlink:href="#a"/><use xlink:href="#b" x="4.996"/><use xlink:href="#1"/></svg><svg x="520"><use xlink:href="#a"/><use xlink:href="#b" x="34.996" y="30.369"/><text y="1.67" class="f">➜</text><text x="3.006" y="1.67" class="g">~</text><path class="h" d="M5.01 0h15v2.171h-15z"/><text x="5.01" y="1.67" class="a">echo &apos;#!/bin/sh</text><path class="h" d="M0 4.342h30v2.171H0z"/><text y="6.012" class="a">if [[ $1 == &quot;upgrade&quot; ]]; then</text><path class="h" d="M0 6.513h28v2.171H0z"/><text y="8.183" class="a">docker pull -a wroge/wms</text><path class="h" d="M0 8.684h10v2.171H0z"/><text y="10.354" class="a">exit 0</text><use xlink:href="#2" y="10.855"/><path class="h" d="M0 15.197h24v2.171H0z"/><text y="16.867" class="a">if [ -z $VERSION ]; then</text><path class="h" d="M0 17.368h22v2.171H0z"/><text y="19.038" class="a">VERSION+=&quot;:latest&quot;</text><path class="h" d="M0 19.539h4v2.171H0z"/><text y="21.209" class="a">else</text><path class="h" d="M0 21.71h25v2.171H0z"/><text y="23.38" class="a">VERSION=&quot;:${VERSION}&quot;</text><use xlink:href="#2" y="23.881"/><use xlink:href="#3" y="28.223"/><use xlink:href="#4" y="30.394"/></svg><svg x="624"><use xlink:href="#a"/><use xlink:href="#b" x=".996" y="23.856"/><use xlink:href="#5"/><use xlink:href="#6" y="4.342"/><use xlink:href="#7" y="6.513"/><use xlink:href="#8" y="8.684"/><use xlink:href="#9" y="10.855"/><use xlink:href="#10" y="15.197"/><use xlink:href="#11" y="17.368"/><use xlink:href="#12" y="19.539"/><use xlink:href="#13" y="21.71"/><text y="25.551" class="h">f</text><path class="h" d="M1.002 23.881h1v2.171h-1z"/><text x="1.002" y="25.551" class="a">i</text><use xlink:href="#3" y="28.223"/><use xlink:href="#4" y="30.394"/></svg><svg x="728"><use xlink:href="#a"/><use xlink:href="#b" x="34.996" y="30.369"/><use xlink:href="#5"/><use xlink:href="#6" y="4.342"/><use xlink:href="#7" y="6.513"/><use xlink:href="#8" y="8.684"/><use xlink:href="#9" y="10.855"/><use xlink:href="#10" y="15.197"/><use xlink:href="#11" y="17.368"/><use xlink:href="#12" y="19.539"/><use xlink:href="#13" y="21.71"/><use xlink:href="#9" y="23.881"/><use xlink:href="#14" y="28.223"/><use xlink:href="#15" y="30.394"/></svg><svg x="832"><use xlink:href="#a"/><use xlink:href="#b" x="-.004" y="32.54"/><use xlink:href="#5"/><use xlink:href="#6" y="4.342"/><use xlink:href="#7" y="6.513"/><use xlink:href="#8" y="8.684"/><use xlink:href="#9" y="10.855"/><use xlink:href="#10" y="15.197"/><use xlink:href="#11" y="17.368"/><use xlink:href="#12" y="19.539"/><use xlink:href="#13" y="21.71"/><use xlink:href="#9" y="23.881"/><use xlink:href="#14" y="28.223"/><use xlink:href="#15" y="30.394"/></svg><svg x="936"><use xlink:href="#a"/><use xlink:href="#b" x="-.004" y="32.54"/><use xlink:href="#5"/><use xlink:href="#6" y="4.342"/><use xlink:href="#7" y="6.513"/><use xlink:href="#8" y="8.684"/><use xlink:href="#9" y="10.855"/><use xlink:href="#10" y="15.197"/><use xlink:href="#11" y="17.368"/><use xlink:href="#12" y="19.539"/><use xlink:href="#13" y="21.71"/><use xlink:href="#9" y="23.881"/><use xlink:href="#14" y="28.223"/><use xlink:href="#15" y="30.394"/></svg><svg x="1040"><use xlink:href="#a"/><use xlink:href="#b" x="-.004" y="32.54"/><use xlink:href="#5"/><use xlink:href="#6" y="4.342"/><use xlink:href="#7" y="6.513"/><use xlink:href="#8" y="8.684"/><use xlink:href="#9" y="10.855"/><use xlink:href="#10" y="15.197"/><use xlink:href="#11" y="17.368"/><use xlink:href="#12" y="19.539"/><use xlink:href="#13" y="21.71"/><use xlink:href="#9" y="23.881"/><use xlink:href="#14" y="28.223"/><use xlink:href="#15" y="30.394"/></svg><svg x="1144"><use xlink:href="#a"/><use xlink:href="#b" x="-.004" y="32.54"/><use xlink:href="#5"/><use xlink:href="#6" y="4.342"/><use xlink:href="#7" y="6.513"/><use xlink:href="#8" y="8.684"/><use xlink:href="#9" y="10.855"/><use xlink:href="#10" y="15.197"/><use xlink:href="#11" y="17.368"/><use xlink:href="#12" y="19.539"/><use xlink:href="#13" y="21.71"/><use xlink:href="#9" y="23.881"/><use xlink:href="#14" y="28.223"/><use xlink:href="#15" y="30.394"/></svg><svg x="1248"><use xlink:href="#a"/><use xlink:href="#b" x="4.996" y="32.54"/><use xlink:href="#5"/><use xlink:href="#6" y="4.342"/><use xlink:href="#7" y="6.513"/><use xlink:href="#8" y="8.684"/><use xlink:href="#9" y="10.855"/><use xlink:href="#10" y="15.197"/><use xlink:href="#11" y="17.368"/><use xlink:href="#12" y="19.539"/><use xlink:href="#13" y="21.71"/><use xlink:href="#9" y="23.881"/><use xlink:href="#14" y="28.223"/><use xlink:href="#15" y="30.394"/><use xlink:href="#1" y="32.565"/></svg><svg x="1352"><use xlink:href="#a"/><use xlink:href="#b" x="4.996" y="32.54"/><use xlink:href="#5"/><use xlink:href="#6" y="4.342"/><use xlink:href="#7" y="6.513"/><use xlink:href="#8" y="8.684"/><use xlink:href="#9" y="10.855"/><use xlink:href="#10" y="15.197"/><use xlink:href="#11" y="17.368"/><use xlink:href="#12" y="19.539"/><use xlink:href="#13" y="21.71"/><use xlink:href="#9" y="23.881"/><use xlink:href="#14" y="28.223"/><use xlink:href="#15" y="30.394"/><use xlink:href="#1" y="32.565"/></svg><svg x="1456"><use xlink:href="#a"/><use xlink:href="#b" x="85.996" y="49.908"/><use xlink:href="#5"/><use xlink:href="#6" y="4.342"/><use xlink:href="#7" y="6.513"/><use xlink:href="#8" y="8.684"/><use xlink:href="#9" y="10.855"/><use xlink:href="#10" y="15.197"/><use xlink:href="#11" y="17.368"/><use xlink:href="#12" y="19.539"/><use xlink:href="#13" y="21.71"/><use xlink:href="#9" y="23.881"/><use xlink:href="#14" y="28.223"/><use xlink:href="#15" y="30.394"/><text y="34.235" class="f">➜</text><text x="3.006" y="34.235" class="g">~</text><path class="h" d="M5.01 32.565h52v2.171h-52z"/><text x="5.01" y="34.235" class="a">mkdir -m 777 ${HOME}/wms-config &amp;&amp; echo &apos;terrestris:</text><path class="h" d="M0 34.736h13v2.171H0z"/><text y="36.406" class="a">epsg: 25832</text><path class="h" d="M0 36.907h20v2.171H0z"/><text y="38.577" class="a">file-name: example</text><path class="h" d="M0 39.078h12v2.171H0z"/><text y="40.748" class="a">format: &quot;&quot;</text><path class="h" d="M0 41.249h9v2.171H0z"/><text y="42.919" class="a">layers:</text><path class="h" d="M0 43.42h12v2.171H0z"/><text y="45.09" class="a">- TOPO-WMS</text><path class="h" d="M0 45.591h19v2.171H0z"/><text y="47.261" class="a">output-folder: &quot;&quot;</text><path class="h" d="M0 47.762h43v2.171H0z"/><text y="49.432" class="a">url: http://ows.terrestris.de/osm/service</text><use xlink:href="#16" y="49.933"/></svg><svg x="1560"><use xlink:href="#a"/><use xlink:href="#b" x="25.996" y="47.737"/><use xlink:href="#5"/><use xlink:href="#6" y="4.342"/><use xlink:href="#7" y="6.513"/><use xlink:href="#8" y="8.684"/><use xlink:href="#9" y="10.855"/><use xlink:href="#10" y="15.197"/><use xlink:href="#11" y="17.368"/><use xlink:href="#12" y="19.539"/><use xlink:href="#13" y="21.71"/><use xlink:href="#9" y="23.881"/><use xlink:href="#14" y="28.223"/><use xlink:href="#15" y="30.394"/><use xlink:href="#17" y="32.565"/><use xlink:href="#18" y="34.736"/><use xlink:href="#19" y="36.907"/><use xlink:href="#20" y="39.078"/><use xlink:href="#21" y="41.249"/><use xlink:href="#22" y="43.42"/><use xlink:href="#23" y="45.591"/><text x="2.004" y="49.432" class="h">url:</text><text x="7.014" y="49.432" class="h">http://ows.terrestr</text><path class="h" d="M26.052 47.762h17v2.171h-17z"/><text x="26.052" y="49.432" class="a">is.de/osm/service</text><use xlink:href="#16" y="49.933"/></svg><svg x="1664"><use xlink:href="#a"/><use xlink:href="#b" x="-.004" y="52.079"/><use xlink:href="#5"/><use xlink:href="#6" y="4.342"/><use xlink:href="#7" y="6.513"/><use xlink:href="#8" y="8.684"/><use xlink:href="#9" y="10.855"/><use xlink:href="#10" y="15.197"/><use xlink:href="#11" y="17.368"/><use xlink:href="#12" y="19.539"/><use xlink:href="#13" y="21.71"/><use xlink:href="#9" y="23.881"/><use xlink:href="#14" y="28.223"/><use xlink:href="#15" y="30.394"/><use xlink:href="#17" y="32.565"/><use xlink:href="#18" y="34.736"/><use xlink:href="#19" y="36.907"/><use xlink:href="#20" y="39.078"/><use xlink:href="#21" y="41.249"/><use xlink:href="#22" y="43.42"/><use xlink:href="#23" y="45.591"/><use xlink:href="#24" y="47.762"/><use xlink:href="#25" y="49.933"/></svg><svg x="1768"><use xlink:href="#a"/><use xlink:href="#b" x="-.004" y="52.079"/><use xlink:href="#5"/><use xlink:href="#6" y="4.342"/><use xlink:href="#7" y="6.513"/><use xlink:href="#8" y="8.684"/><use xlink:href="#9" y="10.855"/><use xlink:href="#10" y="15.197"/><use xlink:href="#11" y="17.368"/><use xlink:href="#12" y="19.539"/><use xlink:href="#13" y="21.71"/><use xlink:href="#9" y="23.881"/><use xlink:href="#14" y="28.223"/><use xlink:href="#15" y="30.394"/><use xlink:href="#17" y="32.565"/><use xlink:href="#18" y="34.736"/><use xlink:href="#19" y="36.907"/><use xlink:href="#20" y="39.078"/><use xlink:href="#21" y="41.249"/><use xlink:href="#22" y="43.42"/><use xlink:href="#23" y="45.591"/><use xlink:href="#24" y="47.762"/><use xlink:href="#25" y="49.933"/></svg><svg x="1872"><use xlink:href="#a"/><use xlink:href="#b" x="-.004" y="54.25"/><use xlink:href="#5"/><use xlink:href="#6" y="4.342"/><use xlink:href="#7" y="6.513"/><use xlink:href="#8" y="8.684"/><use xlink:href="#9" y="10.855"/><use xlink:href="#10" y="15.197"/><use xlink:href="#11" y="17.368"/><use xlink:href="#12" y="19.539"/><use xlink:href="#13" y="21.71"/><use xlink:href="#9" y="23.881"/><use xlink:href="#14" y="28.223"/><use xlink:href="#15" y="30.394"/><use xlink:href="#17" y="32.565"/><use xlink:href="#18" y="34.736"/><use xlink:href="#19" y="36.907"/><use xlink:href="#20" y="39.078"/><use xlink:href="#21" y="41.249"/><use xlink:href="#22" y="43.42"/><use xlink:href="#23" y="45.591"/><use xlink:href="#24" y="47.762"/><use xlink:href="#25" y="49.933"/><use xlink:href="#26" y="52.104"/></svg><svg x="1976"><use xlink:href="#a"/><use xlink:href="#b" x="-.004" y="54.25"/><use xlink:href="#5"/><use xlink:href="#6" y="4.342"/><use xlink:href="#7" y="6.513"/><use xlink:href="#8" y="8.684"/><use xlink:href="#9" y="10.855"/><use xlink:href="#10" y="15.197"/><use xlink:href="#11" y="17.368"/><use xlink:href="#12" y="19.539"/><use xlink:href="#13" y="21.71"/><use xlink:href="#9" y="23.881"/><use xlink:href="#14" y="28.223"/><use xlink:href="#15" y="30.394"/><use xlink:href="#17" y="32.565"/><use xlink:href="#18" y="34.736"/><use xlink:href="#19" y="36.907"/><use xlink:href="#20" y="39.078"/><use xlink:href="#21" y="41.249"/><use xlink:href="#22" y="43.42"/><use xlink:href="#23" y="45.591"/><use xlink:href="#24" y="47.762"/><use xlink:href="#25" y="49.933"/><use xlink:href="#26" y="52.104"/></svg><svg x="2080"><use xlink:href="#a"/><use xlink:href="#b" x="-.004" y="54.25"/><use xlink:href="#5"/><use xlink:href="#6" y="4.342"/><use xlink:href="#7" y="6.513"/><use xlink:href="#8" y="8.684"/><use xlink:href="#9" y="10.855"/><use xlink:href="#10" y="15.197"/><use xlink:href="#11" y="17.368"/><use xlink:href="#12" y="19.539"/><use xlink:href="#13" y="21.71"/><use xlink:href="#9" y="23.881"/><use xlink:href="#14" y="28.223"/><use xlink:href="#15" y="30.394"/><use xlink:href="#17" y="32.565"/><use xlink:href="#18" y="34.736"/><use xlink:href="#19" y="36.907"/><use xlink:href="#20" y="39.078"/><use xlink:href="#21" y="41.249"/><use xlink:href="#22" y="43.42"/><use xlink:href="#23" y="45.591"/><use xlink:href="#24" y="47.762"/><use xlink:href="#25" y="49.933"/><use xlink:href="#26" y="52.104"/></svg><svg x="2184"><use xlink:href="#a"/><use xlink:href="#b" x="4.996" y="54.25"/><use xlink:href="#5"/><use xlink:href="#6" y="4.342"/><use xlink:href="#7" y="6.513"/><use xlink:href="#8" y="8.684"/><use xlink:href="#9" y="10.855"/><use xlink:href="#10" y="15.197"/><use xlink:href="#11" y="17.368"/><use xlink:href="#12" y="19.539"/><use xlink:href="#13" y="21.71"/><use xlink:href="#9" y="23.881"/><use xlink:href="#14" y="28.223"/><use xlink:href="#15" y="30.394"/><use xlink:href="#17" y="32.565"/><use xlink:href="#18" y="34.736"/><use xlink:href="#19" y="36.907"/><use xlink:href="#20" y="39.078"/><use xlink:href="#21" y="41.249"/><use xlink:href="#22" y="43.42"/><use xlink:href="#23" y="45.591"/><use xlink:href="#24" y="47.762"/><use xlink:href="#25" y="49.933"/><use xlink:href="#26" y="52.104"/><use xlink:href="#27" y="54.275"/></svg><svg x="2288"><use xlink:href="#a"/><use xlink:href="#b" x="4.996" y="54.25"/><use xlink:href="#5"/><use xlink:href="#6" y="4.342"/><use xlink:href="#7" y="6.513"/><use xlink:href="#8" y="8.684"/><use xlink:href="#9" y="10.855"/><use xlink:href="#10" y="15.197"/><use xlink:href="#11" y="17.368"/><use xlink:href="#12" y="19.539"/><use xlink:href="#13" y="21.71"/><use xlink:href="#9" y="23.881"/><use xlink:href="#14" y="28.223"/><use xlink:href="#15" y="30.394"/><use xlink:href="#17" y="32.565"/><use xlink:href="#18" y="34.736"/><use xlink:href="#19" y="36.907"/><use xlink:href="#20" y="39.078"/><use xlink:href="#21" y="41.249"/><use xlink:href="#22" y="43.42"/><use xlink:href="#23" y="45.591"/><use xlink:href="#24" y="47.762"/><use xlink:href="#25" y="49.933"/><use xlink:href="#26" y="52.104"/><use xlink:href="#27" y="54.275"/></svg><svg x="2392"><use xlink:href="#a"/><use xlink:href="#b" x="22.996" y="54.25"/><use xlink:href="#5"/><use xlink:href="#6" y="4.342"/><use xlink:href="#7" y="6.513"/><use xlink:href="#8" y="8.684"/><use xlink:href="#9" y="10.855"/><use xlink:href="#10" y="15.197"/><use xlink:href="#11" y="17.368"/><use xlink:href="#12" y="19.539"/><use xlink:href="#13" y="21.71"/><use xlink:href="#9" y="23.881"/><use xlink:href="#14" y="28.223"/><use xlink:href="#15" y="30.394"/><use xlink:href="#17" y="32.565"/><use xlink:href="#18" y="34.736"/><use xlink:href="#19" y="36.907"/><use xlink:href="#20" y="39.078"/><use xlink:href="#21" y="41.249"/><use xlink:href="#22" y="43.42"/><use xlink:href="#23" y="45.591"/><use xlink:href="#24" y="47.762"/><use xlink:href="#25" y="49.933"/><use xlink:href="#26" y="52.104"/><text y="55.945" class="i">➜</text><text x="3.006" y="55.945" class="g">~</text><path class="h" d="M5.01 54.275h18v2.171h-18z"/><text x="5.01" y="55.945" class="a">wms cap terrestris</text></svg><svg x="2496"><use xlink:href="#a"/><use xlink:href="#b" x="22.996" y="54.25"/><use xlink:href="#5"/><use xlink:href="#6" y="4.342"/><use xlink:href="#7" y="6.513"/><use xlink:href="#8" y="8.684"/><use xlink:href="#9" y="10.855"/><use xlink:href="#10" y="15.197"/><use xlink:href="#11" y="17.368"/><use xlink:href="#12" y="19.539"/><use xlink:href="#13" y="21.71"/><use xlink:href="#9" y="23.881"/><use xlink:href="#14" y="28.223"/><use xlink:href="#15" y="30.394"/><use xlink:href="#17" y="32.565"/><use xlink:href="#18" y="34.736"/><use xlink:href="#19" y="36.907"/><use xlink:href="#20" y="39.078"/><use xlink:href="#21" y="41.249"/><use xlink:href="#22" y="43.42"/><use xlink:href="#23" y="45.591"/><use xlink:href="#24" y="47.762"/><use xlink:href="#25" y="49.933"/><use xlink:href="#26" y="52.104"/><use xlink:href="#28" y="54.275"/></svg><svg x="2600"><use xlink:href="#a"/><use xlink:href="#b" x="-.004" y="56.421"/><use xlink:href="#5"/><use xlink:href="#6" y="4.342"/><use xlink:href="#7" y="6.513"/><use xlink:href="#8" y="8.684"/><use xlink:href="#9" y="10.855"/><use xlink:href="#10" y="15.197"/><use xlink:href="#11" y="17.368"/><use xlink:href="#12" y="19.539"/><use xlink:href="#13" y="21.71"/><use xlink:href="#9" y="23.881"/><use xlink:href="#14" y="28.223"/><use xlink:href="#15" y="30.394"/><use xlink:href="#17" y="32.565"/><use xlink:href="#18" y="34.736"/><use xlink:href="#19" y="36.907"/><use xlink:href="#20" y="39.078"/><use xlink:href="#21" y="41.249"/><use xlink:href="#22" y="43.42"/><use xlink:href="#23" y="45.591"/><use xlink:href="#24" y="47.762"/><use xlink:href="#25" y="49.933"/><use xlink:href="#26" y="52.104"/><use xlink:href="#28" y="54.275"/></svg><svg x="2704"><use xlink:href="#a"/><use xlink:href="#b" x="-.004" y="56.421"/><use xlink:href="#5"/><use xlink:href="#6" y="4.342"/><use xlink:href="#7" y="6.513"/><use xlink:href="#8" y="8.684"/><use xlink:href="#9" y="10.855"/><use xlink:href="#10" y="15.197"/><use xlink:href="#11" y="17.368"/><use xlink:href="#12" y="19.539"/><use xlink:href="#13" y="21.71"/><use xlink:href="#9" y="23.881"/><use xlink:href="#14" y="28.223"/><use xlink:href="#15" y="30.394"/><use xlink:href="#17" y="32.565"/><use xlink:href="#18" y="34.736"/><use xlink:href="#19" y="36.907"/><use xlink:href="#20" y="39.078"/><use xlink:href="#21" y="41.249"/><use xlink:href="#22" y="43.42"/><use xlink:href="#23" y="45.591"/><use xlink:href="#24" y="47.762"/><use xlink:href="#25" y="49.933"/><use xlink:href="#26" y="52.104"/><use xlink:href="#28" y="54.275"/></svg><svg x="2808"><use xlink:href="#a"/><use xlink:href="#b" x="58.996" y="60.763"/><use xlink:href="#21"/><use xlink:href="#22" y="2.171"/><use xlink:href="#23" y="4.342"/><use xlink:href="#24" y="6.513"/><use xlink:href="#25" y="8.684"/><use xlink:href="#26" y="10.855"/><use xlink:href="#28" y="13.026"/><text y="16.867" class="h">Version:</text><text x="9.018" y="16.867" class="h">1.1.1</text><text y="19.038" class="h">Name:</text><text x="6.012" y="19.038" class="h">OGC:WMS</text><text y="21.209" class="h">Title:</text><text x="7.014" y="21.209" class="h">OpenStreetMap</text><text x="21.042" y="21.209" class="h">WMS</text><text y="23.38" class="h">Abstract:</text><text x="10.02" y="23.38" class="h">OpenStreetMap</text><text x="24.048" y="23.38" class="h">WMS,</text><text x="29.058" y="23.38" class="h">bereitgestellt</text><text x="44.088" y="23.38" class="h">durch</text><text x="50.1" y="23.38" class="h">terrestris</text><text x="61.122" y="23.38" class="h">GmbH</text><text x="66.132" y="23.38" class="h">und</text><text x="70.14" y="23.38" class="h">Co.</text><text x="74.148" y="23.38" class="h">KG.</text><text x="78.156" y="23.38" class="h">Beschleunigt</text><text x="91.182" y="23.38" class="h">mit</text><text x="95.19" y="23.38" class="h">MapProxy</text><text y="25.551" class="h">(http://mapproxy.org/)</text><text y="27.722" class="h">Formats:</text><text x="9.018" y="27.722" class="h">image/jpeg,</text><text x="21.042" y="27.722" class="h">image/png</text><text y="32.064" class="h">Layers:</text><text y="34.235" class="h">Name:</text><text x="6.012" y="34.235" class="h">OSM-WMS</text><text y="36.406" class="h">Styles:</text><text x="8.016" y="36.406" class="h">default</text><use xlink:href="#29" y="36.907"/><use xlink:href="#30" y="39.078"/><use xlink:href="#31" y="41.249"/><use xlink:href="#32" y="45.591"/><use xlink:href="#29" y="47.762"/><use xlink:href="#30" y="49.933"/><use xlink:href="#31" y="52.104"/><use xlink:href="#33" y="56.446"/><use xlink:href="#29" y="58.617"/><text y="62.458" class="h">EPSG:4326</text><text x="10.02" y="62.458" class="h">minx:</text><text x="16.032" y="62.458" class="h">-180.000000</text><text x="28.056" y="62.458" class="h">miny:</text><text x="34.068" y="62.458" class="h">-88.000000</text><text x="45.09" y="62.458" class="h">maxx:</text><text x="51.102" y="62.458" class="h">180.0000</text></svg><svg x="2912"><use xlink:href="#a"/><use xlink:href="#b" x="-.004" y="60.763"/><use xlink:href="#29"/><use xlink:href="#30" y="2.171"/><use xlink:href="#31" y="4.342"/><use xlink:href="#32" y="8.684"/><use xlink:href="#29" y="10.855"/><use xlink:href="#30" y="13.026"/><use xlink:href="#31" y="15.197"/><use xlink:href="#33" y="19.539"/><use xlink:href="#29" y="21.71"/><use xlink:href="#30" y="23.881"/><use xlink:href="#31" y="26.052"/><use xlink:href="#34" y="30.394"/><use xlink:href="#29" y="32.565"/><use xlink:href="#30" y="34.736"/><use xlink:href="#31" y="36.907"/><use xlink:href="#35" y="41.249"/><use xlink:href="#36" y="43.42"/><use xlink:href="#37" y="45.591"/><use xlink:href="#38" y="47.762"/><use xlink:href="#39" y="52.104"/><use xlink:href="#36" y="54.275"/><use xlink:href="#37" y="56.446"/><use xlink:href="#38" y="58.617"/></svg><svg x="3016"><use xlink:href="#a"/><use xlink:href="#b" x="-.004" y="60.763"/><use xlink:href="#30"/><use xlink:href="#31" y="2.171"/><use xlink:href="#34" y="6.513"/><use xlink:href="#29" y="8.684"/><use xlink:href="#30" y="10.855"/><use xlink:href="#31" y="13.026"/><use xlink:href="#35" y="17.368"/><use xlink:href="#36" y="19.539"/><use xlink:href="#37" y="21.71"/><use xlink:href="#38" y="23.881"/><use xlink:href="#39" y="28.223"/><use xlink:href="#36" y="30.394"/><use xlink:href="#37" y="32.565"/><use xlink:href="#38" y="34.736"/><use xlink:href="#40" y="39.078"/><use xlink:href="#36" y="41.249"/><use xlink:href="#37" y="43.42"/><use xlink:href="#38" y="45.591"/><use xlink:href="#41" y="49.933"/><use xlink:href="#36" y="52.104"/><use xlink:href="#37" y="54.275"/><use xlink:href="#38" y="56.446"/></svg><svg x="3120"><use xlink:href="#a"/><use xlink:href="#b" x="-.004" y="60.763"/><use xlink:href="#30"/><use xlink:href="#31" y="2.171"/><use xlink:href="#34" y="6.513"/><use xlink:href="#29" y="8.684"/><use xlink:href="#30" y="10.855"/><use xlink:href="#31" y="13.026"/><use xlink:href="#35" y="17.368"/><use xlink:href="#36" y="19.539"/><use xlink:href="#37" y="21.71"/><use xlink:href="#38" y="23.881"/><use xlink:href="#39" y="28.223"/><use xlink:href="#36" y="30.394"/><use xlink:href="#37" y="32.565"/><use xlink:href="#38" y="34.736"/><use xlink:href="#40" y="39.078"/><use xlink:href="#36" y="41.249"/><use xlink:href="#37" y="43.42"/><use xlink:href="#38" y="45.591"/><use xlink:href="#41" y="49.933"/><use xlink:href="#36" y="52.104"/><use xlink:href="#37" y="54.275"/><use xlink:href="#38" y="56.446"/></svg><svg x="3224"><use xlink:href="#a"/><use xlink:href="#b" x="-.004" y="60.763"/><use xlink:href="#30"/><use xlink:href="#31" y="2.171"/><use xlink:href="#34" y="6.513"/><use xlink:href="#29" y="8.684"/><use xlink:href="#30" y="10.855"/><use xlink:href="#31" y="13.026"/><use xlink:href="#35" y="17.368"/><use xlink:href="#36" y="19.539"/><use xlink:href="#37" y="21.71"/><use xlink:href="#38" y="23.881"/><use xlink:href="#39" y="28.223"/><use xlink:href="#36" y="30.394"/><use xlink:href="#37" y="32.565"/><use xlink:href="#38" y="34.736"/><use xlink:href="#40" y="39.078"/><use xlink:href="#36" y="41.249"/><use xlink:href="#37" y="43.42"/><use xlink:href="#38" y="45.591"/><use xlink:href="#41" y="49.933"/><use xlink:href="#36" y="52.104"/><use xlink:href="#37" y="54.275"/><use xlink:href="#38" y="56.446"/></svg><svg x="3328"><use xlink:href="#a"/><use xlink:href="#b" x="4.996" y="60.763"/><use xlink:href="#30"/><use xlink:href="#31" y="2.171"/><use xlink:href="#34" y="6.513"/><use xlink:href="#29" y="8.684"/><use xlink:href="#30" y="10.855"/><use xlink:href="#31" y="13.026"/><use xlink:href="#35" y="17.368"/><use xlink:href="#36" y="19.539"/><use xlink:href="#37" y="21.71"/><use xlink:href="#38" y="23.881"/><use xlink:href="#39" y="28.223"/><use xlink:href="#36" y="30.394"/><use xlink:href="#37" y="32.565"/><use xlink:href="#38" y="34.736"/><use xlink:href="#40" y="39.078"/><use xlink:href="#36" y="41.249"/><use xlink:href="#37" y="43.42"/><use xlink:href="#38" y="45.591"/><use xlink:href="#41" y="49.933"/><use xlink:href="#36" y="52.104"/><use xlink:href="#37" y="54.275"/><use xlink:href="#38" y="56.446"/><use xlink:href="#1" y="60.788"/></svg><svg x="3432"><use xlink:href="#a"/><use xlink:href="#b" x="63.996" y="60.763"/><use xlink:href="#30"/><use xlink:href="#31" y="2.171"/><use xlink:href="#34" y="6.513"/><use xlink:href="#29" y="8.684"/><use xlink:href="#30" y="10.855"/><use xlink:href="#31" y="13.026"/><use xlink:href="#35" y="17.368"/><use xlink:href="#36" y="19.539"/><use xlink:href="#37" y="21.71"/><use xlink:href="#38" y="23.881"/><use xlink:href="#39" y="28.223"/><use xlink:href="#36" y="30.394"/><use xlink:href="#37" y="32.565"/><use xlink:href="#38" y="34.736"/><use xlink:href="#40" y="39.078"/><use xlink:href="#36" y="41.249"/><use xlink:href="#37" y="43.42"/><use xlink:href="#38" y="45.591"/><use xlink:href="#41" y="49.933"/><use xlink:href="#36" y="52.104"/><use xlink:href="#37" y="54.275"/><use xlink:href="#38" y="56.446"/><text y="62.458" class="f">➜</text><text x="3.006" y="62.458" class="g">~</text><path class="h" d="M5.01 60.788h59v2.171h-59z"/><text x="5.01" y="62.458" class="a">wms map terrestris -b 565000,5930000,570000,5935000 -w 1000</text></svg><svg x="3536"><use xlink:href="#a"/><use xlink:href="#b" x="63.996" y="60.763"/><use xlink:href="#30"/><use xlink:href="#31" y="2.171"/><use xlink:href="#34" y="6.513"/><use xlink:href="#29" y="8.684"/><use xlink:href="#30" y="10.855"/><use xlink:href="#31" y="13.026"/><use xlink:href="#35" y="17.368"/><use xlink:href="#36" y="19.539"/><use xlink:href="#37" y="21.71"/><use xlink:href="#38" y="23.881"/><use xlink:href="#39" y="28.223"/><use xlink:href="#36" y="30.394"/><use xlink:href="#37" y="32.565"/><use xlink:href="#38" y="34.736"/><use xlink:href="#40" y="39.078"/><use xlink:href="#36" y="41.249"/><use xlink:href="#37" y="43.42"/><use xlink:href="#38" y="45.591"/><use xlink:href="#41" y="49.933"/><use xlink:href="#36" y="52.104"/><use xlink:href="#37" y="54.275"/><use xlink:href="#38" y="56.446"/><use xlink:href="#42" y="60.788"/></svg><svg x="3640"><use xlink:href="#a"/><use xlink:href="#b" x="-.004" y="60.763"/><use xlink:href="#31"/><use xlink:href="#34" y="4.342"/><use xlink:href="#29" y="6.513"/><use xlink:href="#30" y="8.684"/><use xlink:href="#31" y="10.855"/><use xlink:href="#35" y="15.197"/><use xlink:href="#36" y="17.368"/><use xlink:href="#37" y="19.539"/><use xlink:href="#38" y="21.71"/><use xlink:href="#39" y="26.052"/><use xlink:href="#36" y="28.223"/><use xlink:href="#37" y="30.394"/><use xlink:href="#38" y="32.565"/><use xlink:href="#40" y="36.907"/><use xlink:href="#36" y="39.078"/><use xlink:href="#37" y="41.249"/><use xlink:href="#38" y="43.42"/><use xlink:href="#41" y="47.762"/><use xlink:href="#36" y="49.933"/><use xlink:href="#37" y="52.104"/><use xlink:href="#38" y="54.275"/><use xlink:href="#42" y="58.617"/></svg><svg x="3744"><use xlink:href="#a"/><use xlink:href="#b" x="-.004" y="60.763"/><use xlink:href="#31"/><use xlink:href="#34" y="4.342"/><use xlink:href="#29" y="6.513"/><use xlink:href="#30" y="8.684"/><use xlink:href="#31" y="10.855"/><use xlink:href="#35" y="15.197"/><use xlink:href="#36" y="17.368"/><use xlink:href="#37" y="19.539"/><use xlink:href="#38" y="21.71"/><use xlink:href="#39" y="26.052"/><use xlink:href="#36" y="28.223"/><use xlink:href="#37" y="30.394"/><use xlink:href="#38" y="32.565"/><use xlink:href="#40" y="36.907"/><use xlink:href="#36" y="39.078"/><use xlink:href="#37" y="41.249"/><use xlink:href="#38" y="43.42"/><use xlink:href="#41" y="47.762"/><use xlink:href="#36" y="49.933"/><use xlink:href="#37" y="52.104"/><use xlink:href="#38" y="54.275"/><use xlink:href="#42" y="58.617"/></svg><svg x="3848"><use xlink:href="#a"/><use xlink:href="#b" x="-.004" y="60.763"/><use xlink:href="#29"/><use xlink:href="#30" y="2.171"/><use xlink:href="#31" y="4.342"/><use xlink:href="#35" y="8.684"/><use xlink:href="#36" y="10.855"/><use xlink:href="#37" y="13.026"/><use xlink:href="#38" y="15.197"/><use xlink:href="#39" y="19.539"/><use xlink:href="#36" y="21.71"/><use xlink:href="#37" y="23.881"/><use xlink:href="#38" y="26.052"/><use xlink:href="#40" y="30.394"/><use xlink:href="#36" y="32.565"/><use xlink:href="#37" y="34.736"/><use xlink:href="#38" y="36.907"/><use xlink:href="#41" y="41.249"/><use xlink:href="#36" y="43.42"/><use xlink:href="#37" y="45.591"/><use xlink:href="#38" y="47.762"/><use xlink:href="#42" y="52.104"/><use xlink:href="#43" y="54.275"/><use xlink:href="#44" y="56.446"/><use xlink:href="#45" y="58.617"/></svg><svg x="3952"><use xlink:href="#a"/><use xlink:href="#b" x="-.004" y="60.763"/><use xlink:href="#30"/><use xlink:href="#31" y="2.171"/><use xlink:href="#35" y="6.513"/><use xlink:href="#36" y="8.684"/><use xlink:href="#37" y="10.855"/><use xlink:href="#38" y="13.026"/><use xlink:href="#39" y="17.368"/><use xlink:href="#36" y="19.539"/><use xlink:href="#37" y="21.71"/><use xlink:href="#38" y="23.881"/><use xlink:href="#40" y="28.223"/><use xlink:href="#36" y="30.394"/><use xlink:href="#37" y="32.565"/><use xlink:href="#38" y="34.736"/><use xlink:href="#41" y="39.078"/><use xlink:href="#36" y="41.249"/><use xlink:href="#37" y="43.42"/><use xlink:href="#38" y="45.591"/><use xlink:href="#42" y="49.933"/><use xlink:href="#43" y="52.104"/><use xlink:href="#44" y="54.275"/><use xlink:href="#45" y="56.446"/><use xlink:href="#46" y="58.617"/></svg><svg x="4056"><use xlink:href="#a"/><use xlink:href="#b" x="-.004" y="60.763"/><use xlink:href="#30"/><use xlink:href="#31" y="2.171"/><use xlink:href="#35" y="6.513"/><use xlink:href="#36" y="8.684"/><use xlink:href="#37" y="10.855"/><use xlink:href="#38" y="13.026"/><use xlink:href="#39" y="17.368"/><use xlink:href="#36" y="19.539"/><use xlink:href="#37" y="21.71"/><use xlink:href="#38" y="23.881"/><use xlink:href="#40" y="28.223"/><use xlink:href="#36" y="30.394"/><use xlink:href="#37" y="32.565"/><use xlink:href="#38" y="34.736"/><use xlink:href="#41" y="39.078"/><use xlink:href="#36" y="41.249"/><use xlink:href="#37" y="43.42"/><use xlink:href="#38" y="45.591"/><use xlink:href="#42" y="49.933"/><use xlink:href="#43" y="52.104"/><use xlink:href="#44" y="54.275"/><use xlink:href="#45" y="56.446"/><use xlink:href="#46" y="58.617"/></svg><svg x="4160"><use xlink:href="#a"/><use xlink:href="#b" x="-.004" y="60.763"/><use xlink:href="#30"/><use xlink:href="#31" y="2.171"/><use xlink:href="#35" y="6.513"/><use xlink:href="#36" y="8.684"/><use xlink:href="#37" y="10.855"/><use xlink:href="#38" y="13.026"/><use xlink:href="#39" y="17.368"/><use xlink:href="#36" y="19.539"/><use xlink:href="#37" y="21.71"/><use xlink:href="#38" y="23.881"/><use xlink:href="#40" y="28.223"/><use xlink:href="#36" y="30.394"/><use xlink:href="#37" y="32.565"/><use xlink:href="#38" y="34.736"/><use xlink:href="#41" y="39.078"/><use xlink:href="#36" y="41.249"/><use xlink:href="#37" y="43.42"/><use xlink:href="#38" y="45.591"/><use xlink:href="#42" y="49.933"/><use xlink:href="#43" y="52.104"/><use xlink:href="#44" y="54.275"/><use xlink:href="#45" y="56.446"/><use xlink:href="#46" y="58.617"/></svg><svg x="4264"><use xlink:href="#a"/><use xlink:href="#b" x="4.996" y="60.763"/><use xlink:href="#30"/><use xlink:href="#31" y="2.171"/><use xlink:href="#35" y="6.513"/><use xlink:href="#36" y="8.684"/><use xlink:href="#37" y="10.855"/><use xlink:href="#38" y="13.026"/><use xlink:href="#39" y="17.368"/><use xlink:href="#36" y="19.539"/><use xlink:href="#37" y="21.71"/><use xlink:href="#38" y="23.881"/><use xlink:href="#40" y="28.223"/><use xlink:href="#36" y="30.394"/><use xlink:href="#37" y="32.565"/><use xlink:href="#38" y="34.736"/><use xlink:href="#41" y="39.078"/><use xlink:href="#36" y="41.249"/><use xlink:href="#37" y="43.42"/><use xlink:href="#38" y="45.591"/><use xlink:href="#42" y="49.933"/><use xlink:href="#43" y="52.104"/><use xlink:href="#44" y="54.275"/><use xlink:href="#45" y="56.446"/><use xlink:href="#46" y="58.617"/><use xlink:href="#1" y="60.788"/></svg><svg x="4368"><use xlink:href="#a"/><use xlink:href="#b" x="4.996" y="60.763"/><use xlink:href="#30"/><use xlink:href="#31" y="2.171"/><use xlink:href="#35" y="6.513"/><use xlink:href="#36" y="8.684"/><use xlink:href="#37" y="10.855"/><use xlink:href="#38" y="13.026"/><use xlink:href="#39" y="17.368"/><use xlink:href="#36" y="19.539"/><use xlink:href="#37" y="21.71"/><use xlink:href="#38" y="23.881"/><use xlink:href="#40" y="28.223"/><use xlink:href="#36" y="30.394"/><use xlink:href="#37" y="32.565"/><use xlink:href="#38" y="34.736"/><use xlink:href="#41" y="39.078"/><use xlink:href="#36" y="41.249"/><use xlink:href="#37" y="43.42"/><use xlink:href="#38" y="45.591"/><use xlink:href="#42" y="49.933"/><use xlink:href="#43" y="52.104"/><use xlink:href="#44" y="54.275"/><use xlink:href="#45" y="56.446"/><use xlink:href="#46" y="58.617"/><use xlink:href="#1" y="60.788"/></svg><svg x="4472"><use xlink:href="#a"/><use xlink:href="#b" x="-.004" y="60.763"/><use xlink:href="#31"/><use xlink:href="#35" y="4.342"/><use xlink:href="#36" y="6.513"/><use xlink:href="#37" y="8.684"/><use xlink:href="#38" y="10.855"/><use xlink:href="#39" y="15.197"/><use xlink:href="#36" y="17.368"/><use xlink:href="#37" y="19.539"/><use xlink:href="#38" y="21.71"/><use xlink:href="#40" y="26.052"/><use xlink:href="#36" y="28.223"/><use xlink:href="#37" y="30.394"/><use xlink:href="#38" y="32.565"/><use xlink:href="#41" y="36.907"/><use xlink:href="#36" y="39.078"/><use xlink:href="#37" y="41.249"/><use xlink:href="#38" y="43.42"/><use xlink:href="#42" y="47.762"/><use xlink:href="#43" y="49.933"/><use xlink:href="#44" y="52.104"/><use xlink:href="#45" y="54.275"/><use xlink:href="#46" y="56.446"/><use xlink:href="#1" y="58.617"/></svg></svg></g></g></svg></svg>